<mxfile host="app.diagrams.net" modified="2021-11-02T04:32:07.783Z" agent="5.0 (Macintosh; Intel Mac OS X 10_15_7) AppleWebKit/537.36 (KHTML, like Gecko) Chrome/95.0.4638.54 Safari/537.36" etag="Vv3vFDWQ_QG4TQVMu4lN" version="15.6.3" type="github">
  <diagram id="C5RBs43oDa-KdzZeNtuy" name="Page-1">
    <mxGraphModel dx="946" dy="1783" grid="1" gridSize="10" guides="1" tooltips="1" connect="1" arrows="1" fold="1" page="1" pageScale="1" pageWidth="827" pageHeight="1169" math="0" shadow="0">
      <root>
        <mxCell id="WIyWlLk6GJQsqaUBKTNV-0" />
        <mxCell id="WIyWlLk6GJQsqaUBKTNV-1" parent="WIyWlLk6GJQsqaUBKTNV-0" />
        <mxCell id="WIyWlLk6GJQsqaUBKTNV-2" value="" style="rounded=0;html=1;jettySize=auto;orthogonalLoop=1;fontSize=11;endArrow=block;endFill=0;endSize=8;strokeWidth=1;shadow=0;labelBackgroundColor=none;edgeStyle=orthogonalEdgeStyle;" parent="WIyWlLk6GJQsqaUBKTNV-1" target="WIyWlLk6GJQsqaUBKTNV-6" edge="1">
          <mxGeometry relative="1" as="geometry">
            <mxPoint x="220" y="162" as="sourcePoint" />
          </mxGeometry>
        </mxCell>
        <mxCell id="WIyWlLk6GJQsqaUBKTNV-3" value="Fetch Parent Dealer" style="rounded=1;whiteSpace=wrap;html=1;fontSize=12;glass=0;strokeWidth=1;shadow=0;" parent="WIyWlLk6GJQsqaUBKTNV-1" vertex="1">
          <mxGeometry x="160" y="121" width="120" height="40" as="geometry" />
        </mxCell>
        <mxCell id="WIyWlLk6GJQsqaUBKTNV-4" value="Yes" style="rounded=0;html=1;jettySize=auto;orthogonalLoop=1;fontSize=11;endArrow=block;endFill=0;endSize=8;strokeWidth=1;shadow=0;labelBackgroundColor=none;edgeStyle=orthogonalEdgeStyle;" parent="WIyWlLk6GJQsqaUBKTNV-1" source="WIyWlLk6GJQsqaUBKTNV-6" edge="1">
          <mxGeometry y="20" relative="1" as="geometry">
            <mxPoint as="offset" />
            <mxPoint x="440" y="282" as="targetPoint" />
          </mxGeometry>
        </mxCell>
        <mxCell id="WIyWlLk6GJQsqaUBKTNV-6" value="Transfer Pricing Enabled&lt;br&gt;Or&lt;br&gt;Parent Order Exist" style="rhombus;whiteSpace=wrap;html=1;shadow=0;fontFamily=Helvetica;fontSize=12;align=center;strokeWidth=1;spacing=6;spacingTop=-4;" parent="WIyWlLk6GJQsqaUBKTNV-1" vertex="1">
          <mxGeometry x="141" y="212" width="150" height="140" as="geometry" />
        </mxCell>
        <mxCell id="y8WUg5UoEk1E836YFh9f-0" value="Commission = 0" style="rounded=0;whiteSpace=wrap;html=1;" vertex="1" parent="WIyWlLk6GJQsqaUBKTNV-1">
          <mxGeometry x="440" y="252" width="120" height="60" as="geometry" />
        </mxCell>
        <mxCell id="y8WUg5UoEk1E836YFh9f-1" value="Stop" style="ellipse;whiteSpace=wrap;html=1;" vertex="1" parent="WIyWlLk6GJQsqaUBKTNV-1">
          <mxGeometry x="630" y="241" width="120" height="80" as="geometry" />
        </mxCell>
        <mxCell id="y8WUg5UoEk1E836YFh9f-2" value="" style="endArrow=classic;html=1;rounded=0;entryX=0;entryY=0.5;entryDx=0;entryDy=0;" edge="1" parent="WIyWlLk6GJQsqaUBKTNV-1">
          <mxGeometry width="50" height="50" relative="1" as="geometry">
            <mxPoint x="560" y="282" as="sourcePoint" />
            <mxPoint x="630" y="282" as="targetPoint" />
          </mxGeometry>
        </mxCell>
        <mxCell id="y8WUg5UoEk1E836YFh9f-3" value="Start" style="ellipse;whiteSpace=wrap;html=1;" vertex="1" parent="WIyWlLk6GJQsqaUBKTNV-1">
          <mxGeometry x="160" y="-10" width="120" height="80" as="geometry" />
        </mxCell>
        <mxCell id="y8WUg5UoEk1E836YFh9f-4" value="" style="endArrow=classic;html=1;rounded=0;" edge="1" parent="WIyWlLk6GJQsqaUBKTNV-1" target="WIyWlLk6GJQsqaUBKTNV-3">
          <mxGeometry width="50" height="50" relative="1" as="geometry">
            <mxPoint x="220" y="70" as="sourcePoint" />
            <mxPoint x="270" y="20" as="targetPoint" />
          </mxGeometry>
        </mxCell>
        <mxCell id="y8WUg5UoEk1E836YFh9f-5" value="" style="endArrow=classic;html=1;rounded=0;" edge="1" parent="WIyWlLk6GJQsqaUBKTNV-1">
          <mxGeometry width="50" height="50" relative="1" as="geometry">
            <mxPoint x="220" y="352" as="sourcePoint" />
            <mxPoint x="220" y="430" as="targetPoint" />
          </mxGeometry>
        </mxCell>
        <mxCell id="y8WUg5UoEk1E836YFh9f-6" value="Fetch Commission Info From Dealer&#39;s Partner Config" style="rounded=1;whiteSpace=wrap;html=1;" vertex="1" parent="WIyWlLk6GJQsqaUBKTNV-1">
          <mxGeometry x="141" y="430" width="180" height="60" as="geometry" />
        </mxCell>
        <mxCell id="y8WUg5UoEk1E836YFh9f-7" value="No" style="text;html=1;strokeColor=none;fillColor=none;align=center;verticalAlign=middle;whiteSpace=wrap;rounded=0;" vertex="1" parent="WIyWlLk6GJQsqaUBKTNV-1">
          <mxGeometry x="235" y="380" width="60" height="30" as="geometry" />
        </mxCell>
        <mxCell id="y8WUg5UoEk1E836YFh9f-8" value="" style="endArrow=classic;html=1;rounded=0;exitX=0.5;exitY=1;exitDx=0;exitDy=0;" edge="1" parent="WIyWlLk6GJQsqaUBKTNV-1" source="y8WUg5UoEk1E836YFh9f-6">
          <mxGeometry width="50" height="50" relative="1" as="geometry">
            <mxPoint x="390" y="540" as="sourcePoint" />
            <mxPoint x="230" y="570" as="targetPoint" />
          </mxGeometry>
        </mxCell>
        <mxCell id="y8WUg5UoEk1E836YFh9f-11" style="edgeStyle=orthogonalEdgeStyle;rounded=0;orthogonalLoop=1;jettySize=auto;html=1;" edge="1" parent="WIyWlLk6GJQsqaUBKTNV-1" source="y8WUg5UoEk1E836YFh9f-9">
          <mxGeometry relative="1" as="geometry">
            <mxPoint x="500" y="630" as="targetPoint" />
          </mxGeometry>
        </mxCell>
        <mxCell id="y8WUg5UoEk1E836YFh9f-16" value="" style="edgeStyle=orthogonalEdgeStyle;rounded=0;orthogonalLoop=1;jettySize=auto;html=1;" edge="1" parent="WIyWlLk6GJQsqaUBKTNV-1" source="y8WUg5UoEk1E836YFh9f-9" target="y8WUg5UoEk1E836YFh9f-15">
          <mxGeometry relative="1" as="geometry" />
        </mxCell>
        <mxCell id="y8WUg5UoEk1E836YFh9f-9" value="Dealer Product Commission Config Exist" style="rhombus;whiteSpace=wrap;html=1;" vertex="1" parent="WIyWlLk6GJQsqaUBKTNV-1">
          <mxGeometry x="125" y="570" width="210" height="120" as="geometry" />
        </mxCell>
        <mxCell id="y8WUg5UoEk1E836YFh9f-10" value="commission = Partner Config" style="text;html=1;strokeColor=none;fillColor=none;align=center;verticalAlign=middle;whiteSpace=wrap;rounded=0;" vertex="1" parent="WIyWlLk6GJQsqaUBKTNV-1">
          <mxGeometry x="351" y="445" width="220" height="30" as="geometry" />
        </mxCell>
        <mxCell id="y8WUg5UoEk1E836YFh9f-31" style="edgeStyle=orthogonalEdgeStyle;rounded=0;orthogonalLoop=1;jettySize=auto;html=1;" edge="1" parent="WIyWlLk6GJQsqaUBKTNV-1" source="y8WUg5UoEk1E836YFh9f-13">
          <mxGeometry relative="1" as="geometry">
            <mxPoint x="230" y="890" as="targetPoint" />
            <Array as="points">
              <mxPoint x="560" y="890" />
              <mxPoint x="240" y="890" />
            </Array>
          </mxGeometry>
        </mxCell>
        <mxCell id="y8WUg5UoEk1E836YFh9f-13" value="commission = Dealer Product Config" style="rounded=0;whiteSpace=wrap;html=1;" vertex="1" parent="WIyWlLk6GJQsqaUBKTNV-1">
          <mxGeometry x="500" y="600" width="120" height="60" as="geometry" />
        </mxCell>
        <mxCell id="y8WUg5UoEk1E836YFh9f-21" value="" style="edgeStyle=orthogonalEdgeStyle;rounded=0;orthogonalLoop=1;jettySize=auto;html=1;" edge="1" parent="WIyWlLk6GJQsqaUBKTNV-1" source="y8WUg5UoEk1E836YFh9f-15" target="y8WUg5UoEk1E836YFh9f-20">
          <mxGeometry relative="1" as="geometry" />
        </mxCell>
        <mxCell id="y8WUg5UoEk1E836YFh9f-15" value="Commission = Previous Commission" style="whiteSpace=wrap;html=1;" vertex="1" parent="WIyWlLk6GJQsqaUBKTNV-1">
          <mxGeometry x="170" y="800" width="120" height="60" as="geometry" />
        </mxCell>
        <mxCell id="y8WUg5UoEk1E836YFh9f-17" value="No" style="text;html=1;strokeColor=none;fillColor=none;align=center;verticalAlign=middle;whiteSpace=wrap;rounded=0;" vertex="1" parent="WIyWlLk6GJQsqaUBKTNV-1">
          <mxGeometry x="270" y="720" width="60" height="30" as="geometry" />
        </mxCell>
        <mxCell id="y8WUg5UoEk1E836YFh9f-18" value="Yes" style="text;html=1;strokeColor=none;fillColor=none;align=center;verticalAlign=middle;whiteSpace=wrap;rounded=0;" vertex="1" parent="WIyWlLk6GJQsqaUBKTNV-1">
          <mxGeometry x="380" y="570" width="60" height="30" as="geometry" />
        </mxCell>
        <mxCell id="y8WUg5UoEk1E836YFh9f-25" value="" style="edgeStyle=orthogonalEdgeStyle;rounded=0;orthogonalLoop=1;jettySize=auto;html=1;" edge="1" parent="WIyWlLk6GJQsqaUBKTNV-1" source="y8WUg5UoEk1E836YFh9f-20" target="y8WUg5UoEk1E836YFh9f-24">
          <mxGeometry relative="1" as="geometry" />
        </mxCell>
        <mxCell id="y8WUg5UoEk1E836YFh9f-29" value="" style="edgeStyle=orthogonalEdgeStyle;rounded=0;orthogonalLoop=1;jettySize=auto;html=1;" edge="1" parent="WIyWlLk6GJQsqaUBKTNV-1" source="y8WUg5UoEk1E836YFh9f-20" target="y8WUg5UoEk1E836YFh9f-28">
          <mxGeometry relative="1" as="geometry" />
        </mxCell>
        <mxCell id="y8WUg5UoEk1E836YFh9f-20" value="Dealer Brand Commission Config Exist" style="rhombus;whiteSpace=wrap;html=1;" vertex="1" parent="WIyWlLk6GJQsqaUBKTNV-1">
          <mxGeometry x="135" y="930" width="190" height="120" as="geometry" />
        </mxCell>
        <mxCell id="y8WUg5UoEk1E836YFh9f-34" style="edgeStyle=orthogonalEdgeStyle;rounded=0;orthogonalLoop=1;jettySize=auto;html=1;" edge="1" parent="WIyWlLk6GJQsqaUBKTNV-1" source="y8WUg5UoEk1E836YFh9f-24">
          <mxGeometry relative="1" as="geometry">
            <mxPoint x="230" y="1310" as="targetPoint" />
            <Array as="points">
              <mxPoint x="500" y="1300" />
              <mxPoint x="230" y="1300" />
            </Array>
          </mxGeometry>
        </mxCell>
        <mxCell id="y8WUg5UoEk1E836YFh9f-24" value="Commission = Dealer Brand Config" style="whiteSpace=wrap;html=1;" vertex="1" parent="WIyWlLk6GJQsqaUBKTNV-1">
          <mxGeometry x="440" y="960" width="120" height="60" as="geometry" />
        </mxCell>
        <mxCell id="y8WUg5UoEk1E836YFh9f-26" value="Yes" style="text;html=1;strokeColor=none;fillColor=none;align=center;verticalAlign=middle;whiteSpace=wrap;rounded=0;" vertex="1" parent="WIyWlLk6GJQsqaUBKTNV-1">
          <mxGeometry x="335" y="950" width="60" height="30" as="geometry" />
        </mxCell>
        <mxCell id="y8WUg5UoEk1E836YFh9f-33" value="" style="edgeStyle=orthogonalEdgeStyle;rounded=0;orthogonalLoop=1;jettySize=auto;html=1;" edge="1" parent="WIyWlLk6GJQsqaUBKTNV-1" source="y8WUg5UoEk1E836YFh9f-28" target="y8WUg5UoEk1E836YFh9f-32">
          <mxGeometry relative="1" as="geometry" />
        </mxCell>
        <mxCell id="y8WUg5UoEk1E836YFh9f-28" value="commission = Previous Commission" style="whiteSpace=wrap;html=1;" vertex="1" parent="WIyWlLk6GJQsqaUBKTNV-1">
          <mxGeometry x="170" y="1160" width="120" height="60" as="geometry" />
        </mxCell>
        <mxCell id="y8WUg5UoEk1E836YFh9f-30" value="No" style="text;html=1;strokeColor=none;fillColor=none;align=center;verticalAlign=middle;whiteSpace=wrap;rounded=0;" vertex="1" parent="WIyWlLk6GJQsqaUBKTNV-1">
          <mxGeometry x="250" y="1070" width="60" height="30" as="geometry" />
        </mxCell>
        <mxCell id="y8WUg5UoEk1E836YFh9f-37" value="" style="edgeStyle=orthogonalEdgeStyle;rounded=0;orthogonalLoop=1;jettySize=auto;html=1;" edge="1" parent="WIyWlLk6GJQsqaUBKTNV-1" source="y8WUg5UoEk1E836YFh9f-32" target="y8WUg5UoEk1E836YFh9f-36">
          <mxGeometry relative="1" as="geometry" />
        </mxCell>
        <mxCell id="y8WUg5UoEk1E836YFh9f-39" value="" style="edgeStyle=orthogonalEdgeStyle;rounded=0;orthogonalLoop=1;jettySize=auto;html=1;" edge="1" parent="WIyWlLk6GJQsqaUBKTNV-1" source="y8WUg5UoEk1E836YFh9f-32" target="y8WUg5UoEk1E836YFh9f-38">
          <mxGeometry relative="1" as="geometry" />
        </mxCell>
        <mxCell id="y8WUg5UoEk1E836YFh9f-32" value="Order premium commission config exist Or&lt;br&gt;(if brand have different premium slabs&lt;br&gt;and commission is defined against it)" style="rhombus;whiteSpace=wrap;html=1;" vertex="1" parent="WIyWlLk6GJQsqaUBKTNV-1">
          <mxGeometry x="80" y="1370" width="300" height="170" as="geometry" />
        </mxCell>
        <mxCell id="y8WUg5UoEk1E836YFh9f-36" value="commssion = Premium commission conifg" style="whiteSpace=wrap;html=1;" vertex="1" parent="WIyWlLk6GJQsqaUBKTNV-1">
          <mxGeometry x="580" y="1425" width="120" height="60" as="geometry" />
        </mxCell>
        <mxCell id="y8WUg5UoEk1E836YFh9f-38" value="Commission = Previosus commission" style="whiteSpace=wrap;html=1;" vertex="1" parent="WIyWlLk6GJQsqaUBKTNV-1">
          <mxGeometry x="171" y="1630" width="120" height="60" as="geometry" />
        </mxCell>
        <mxCell id="y8WUg5UoEk1E836YFh9f-40" value="Yes" style="text;html=1;strokeColor=none;fillColor=none;align=center;verticalAlign=middle;whiteSpace=wrap;rounded=0;" vertex="1" parent="WIyWlLk6GJQsqaUBKTNV-1">
          <mxGeometry x="440" y="1400" width="60" height="30" as="geometry" />
        </mxCell>
        <mxCell id="y8WUg5UoEk1E836YFh9f-41" value="No" style="text;html=1;strokeColor=none;fillColor=none;align=center;verticalAlign=middle;whiteSpace=wrap;rounded=0;" vertex="1" parent="WIyWlLk6GJQsqaUBKTNV-1">
          <mxGeometry x="261" y="1550" width="60" height="30" as="geometry" />
        </mxCell>
      </root>
    </mxGraphModel>
  </diagram>
</mxfile>
